<svg xmlns="http://www.w3.org/2000/svg" xmlns:xlink="http://www.w3.org/1999/xlink" width="1860" height="260" viewBox="0 0 1860 260">
  <defs>
    <polygon id="bg_small3-a" points="0 0 1860 0 1860 260 0 260"/>
  </defs>
  <g fill="none" fill-rule="evenodd">
    <use fill="#006FFF" fill-opacity=".1" xlink:href="#bg_small3-a"/>
    <path stroke="#8CBAE5" stroke-opacity=".15" stroke-width="2" d="M1,1 L1,259 L1859,259 L1859,1 L1,1 Z"/>
    <g stroke="#659CE3" stroke-linecap="square" stroke-width="2">
      <path d="M1 1L41 1M1 1L1 41"/>
    </g>
    <g stroke="#659CE3" stroke-linecap="square" stroke-width="2" transform="matrix(1 0 0 -1 0 260)">
      <path d="M1 1L41 1M1 1L1 41"/>
    </g>
    <g stroke="#659CE3" stroke-linecap="square" stroke-width="2" transform="matrix(-1 0 0 1 1860 0)">
      <path d="M1 1L41 1M1 1L1 41"/>
    </g>
    <g stroke="#659CE3" stroke-linecap="square" stroke-width="2" transform="rotate(180 930 130)">
      <path d="M1 1L41 1M1 1L1 41"/>
    </g>
  </g>
</svg>
